<?xml version="1.0" encoding="UTF-8" standalone="no"?>
<svg
   version="1.0"
   width="700.000000pt"
   height="983.000000pt"
   viewBox="0 0 700.000000 983.000000"
   preserveAspectRatio="xMidYMid meet"
   id="svg24"
   sodipodi:docname="generated.svg"
   inkscape:version="1.2.1 (9c6d41e4, 2022-07-14)"
   inkscape:export-filename="archive2.svg"
   inkscape:export-xdpi="96"
   inkscape:export-ydpi="96"
   xmlns:inkscape="http://www.inkscape.org/namespaces/inkscape"
   xmlns:sodipodi="http://sodipodi.sourceforge.net/DTD/sodipodi-0.dtd"
   xmlns="http://www.w3.org/2000/svg"
   xmlns:svg="http://www.w3.org/2000/svg">
  <defs
     id="defs28" />
  <sodipodi:namedview
     id="namedview26"
     pagecolor="#ffffff"
     bordercolor="#000000"
     borderopacity="0.25"
     inkscape:showpageshadow="2"
     inkscape:pageopacity="0.0"
     inkscape:pagecheckerboard="0"
     inkscape:deskcolor="#d1d1d1"
     inkscape:document-units="pt"
     showgrid="false"
     inkscape:zoom="0.72856234"
     inkscape:cx="453.63311"
     inkscape:cy="703.44015"
     inkscape:window-width="1396"
     inkscape:window-height="799"
     inkscape:window-x="0"
     inkscape:window-y="25"
     inkscape:window-maximized="0"
     inkscape:current-layer="svg24" />
  <metadata
     id="metadata2">
Created by potrace 1.12, written by Peter Selinger 2001-2015
</metadata>
  <g
     transform="translate(0.000000,983.000000) scale(0.100000,-0.100000)"
     fill="#000000"
     stroke="none"
     id="g22"
     style="fill:#ffffff">
    <path
       d="M2670 9461 c0 -6 -16 -11 -36 -11 -26 0 -43 -8 -64 -28 -19 -19 -61 -39 -127 -61 -54 -18 -108 -38 -120 -46 -30 -20 -302 -135 -318 -135 -8 0 -62 -24 -122 -54 -59 -30 -123 -57 -142 -61 -19 -4 -54 -20 -79 -36 -25 -16 -49 -29 -53 -29 -9 0 -173 -74 -204 -92 -11 -7 -40 -22 -65 -34 -25 -12 -70 -36 -100 -54 -30 -17 -87 -40 -127 -50 -40 -11 -82 -24 -94 -31 -12 -6 -31 -13 -43 -15 -48 -8 -173 -45 -210 -63 -23 -10 -62 -26 -88 -35 -25 -9 -52 -24 -58 -32 -7 -7 -17 -14 -23 -14 -5 0 -34 -14 -64 -31 -48 -28 -53 -33 -40 -48 9 -11 12 -35 10 -76 -12 -188 -11 -268 4 -332 8 -37 19 -90 24 -118 13 -75 13 -755 0 -855 -14 -109 -14 -385 0 -430 6 -19 12 -107 14 -196 1 -88 7 -176 14 -195 6 -18 11 -45 12 -59 4 -164 -13 -503 -35 -670 -7 -48 1 -179 21 -349 3 -29 1 -83 -5 -120 -38 -228 -33 -377 25 -771 24 -158 23 -422 -2 -593 -8 -58 -9 -125 -2 -232 16 -266 15 -354 -4 -445 -12 -60 -16 -113 -12 -180 9 -179 15 -240 24 -234 6 3 8 -26 5 -73 -11 -172 -7 -304 14 -461 6 -40 10 -92 10 -116 0 -23 5 -47 12 -54 8 -8 5 -14 -14 -21 -38 -14 -42 -29 -9 -36 33 -7 65 -39 76 -75 4 -14 20 -41 35 -60 15 -19 62 -89 105 -155 42 -66 94 -144 114 -174 20 -29 54 -84 76 -122 22 -37 79 -126 126 -197 48 -71 96 -147 107 -169 11 -21 28 -46 38 -54 9 -8 37 -45 62 -84 24 -38 57 -80 73 -93 16 -13 29 -30 29 -38 0 -7 37 -33 82 -56 82 -42 84 -43 188 -44 58 0 148 -5 200 -12 70 -8 127 -8 220 0 283 25 402 27 535 8 50 -7 97 -19 106 -27 13 -11 30 -12 81 -6 35 5 77 6 94 1 16 -4 49 -7 74 -7 31 1 58 -6 84 -22 34 -20 55 -23 145 -25 58 -2 131 2 162 7 39 6 66 6 85 -2 47 -18 175 -28 227 -18 26 4 71 20 101 34 65 31 143 33 224 6 31 -11 91 -22 132 -25 151 -12 196 -19 220 -34 53 -34 159 -11 180 39 13 30 58 53 146 73 33 7 71 19 83 26 13 6 50 16 83 20 92 13 222 59 260 92 45 40 115 88 126 88 6 0 30 18 53 41 46 44 75 59 115 59 48 0 214 61 238 87 16 17 48 31 102 45 76 19 104 26 177 48 45 13 128 44 152 57 11 5 35 13 52 16 18 4 45 20 60 37 19 20 46 35 80 44 31 8 71 29 98 52 26 21 62 40 82 43 48 8 64 33 39 60 -24 27 -77 27 -135 1 -25 -12 -65 -20 -95 -20 -47 0 -56 -4 -87 -36 -45 -48 -158 -134 -176 -134 -7 0 -29 -15 -48 -34 -25 -26 -49 -37 -92 -46 -32 -7 -73 -19 -92 -27 -19 -9 -58 -21 -86 -28 -28 -6 -77 -29 -108 -49 -60 -40 -159 -76 -207 -76 -16 0 -41 -11 -57 -24 -15 -13 -57 -38 -92 -56 -36 -17 -71 -38 -78 -46 -8 -8 -19 -14 -25 -14 -5 0 -32 -11 -60 -25 -48 -24 -188 -65 -225 -65 -10 0 -43 -16 -73 -35 -30 -19 -62 -35 -73 -35 -39 0 -116 -33 -143 -61 -54 -56 -64 -33 -51 111 4 47 4 146 1 220 -7 129 -9 402 -4 465 1 17 9 77 17 134 12 83 13 109 3 130 -11 23 -25 245 -35 566 -1 55 -7 114 -13 132 -7 23 -7 42 3 71 10 27 11 50 5 78 -13 54 -31 560 -35 954 -1 201 -7 340 -14 365 -6 22 -11 99 -11 170 0 72 -5 175 -11 230 -24 244 -28 480 -8 556 21 82 28 415 10 474 -5 16 -10 131 -10 255 -1 318 -9 586 -21 668 -5 38 -10 245 -10 460 1 356 2 391 18 403 39 31 60 38 91 29 18 -5 33 -5 36 1 4 5 17 6 30 3 18 -4 33 1 57 21 33 28 166 94 283 140 38 15 83 38 100 51 16 12 52 30 78 39 27 9 69 29 95 46 25 16 51 29 57 29 6 0 49 19 95 43 47 24 105 49 130 56 25 7 54 18 65 25 11 7 38 16 60 20 22 4 59 19 82 33 28 16 49 22 64 18 15 -5 19 -4 15 4 -4 6 3 15 18 21 14 5 29 18 35 28 6 11 26 23 45 26 19 4 47 13 62 20 16 8 49 17 74 21 24 4 72 23 107 41 63 35 169 68 184 58 17 -10 27 -74 17 -110 -8 -29 -6 -39 8 -55 15 -16 15 -24 4 -66 -6 -27 -16 -60 -21 -74 -12 -31 1 -121 19 -127 8 -2 10 5 6 26 -7 36 11 51 26 21 7 -12 10 -51 7 -100 -3 -43 -1 -96 4 -116 9 -40 1 -129 -11 -116 -4 4 -12 27 -19 51 -6 23 -16 40 -20 37 -5 -2 -11 5 -14 17 -4 12 -9 19 -12 16 -4 -3 -1 -16 5 -28 6 -12 10 -42 9 -67 -2 -34 1 -48 14 -58 10 -7 14 -15 8 -16 -9 -4 2 -39 30 -92 16 -31 22 -105 10 -134 -7 -19 -8 -46 -2 -83 6 -36 5 -62 -2 -75 -6 -12 -11 -136 -11 -335 -1 -173 -4 -319 -6 -325 -7 -17 10 -178 25 -234 10 -38 11 -68 5 -100 -10 -53 -4 -154 10 -181 6 -11 8 -106 6 -237 -2 -120 0 -258 5 -308 10 -106 10 -109 9 -243 0 -69 4 -111 14 -130 9 -18 12 -50 10 -97 -3 -39 1 -82 7 -97 13 -33 17 -167 5 -171 -6 -2 -4 -35 3 -80 7 -46 10 -97 5 -125 -9 -60 -9 -62 0 -277 10 -246 9 -339 -10 -905 -12 -352 -12 -417 8 -715 10 -148 37 -293 65 -348 9 -18 15 -70 17 -155 3 -122 9 -162 26 -162 15 0 30 61 20 81 -14 26 -15 257 -1 432 9 107 9 187 2 290 -6 78 -10 229 -8 334 1 106 -3 266 -10 355 -7 90 -14 246 -17 348 -3 102 -10 223 -16 270 -6 47 -11 150 -9 230 3 277 -24 972 -46 1140 -9 72 -11 136 -6 205 10 120 3 669 -9 775 -6 48 -5 81 2 93 11 21 2 144 -11 162 -21 28 -31 114 -31 265 0 91 -1 235 -2 321 -2 119 0 160 10 172 11 13 11 23 2 52 -6 19 -10 70 -9 112 3 78 -6 176 -20 243 -7 33 -7 228 1 513 4 113 2 131 -14 150 -41 48 -78 100 -78 109 0 5 -22 42 -49 81 -28 40 -59 93 -70 118 -11 25 -29 54 -41 64 -11 10 -20 26 -20 35 0 10 -11 34 -25 54 -14 21 -34 55 -46 77 -11 22 -28 43 -37 46 -22 9 -41 34 -42 56 0 9 -10 25 -21 35 -12 9 -34 31 -50 47 -16 17 -29 24 -29 18 0 -7 -4 -13 -10 -13 -5 0 -10 7 -10 15 0 8 -4 15 -9 15 -5 0 -14 13 -21 30 -12 29 -11 47 1 43 13 -4 -4 39 -16 44 -7 2 -18 18 -24 34 -6 16 -16 43 -22 59 -6 17 -17 30 -24 30 -11 0 -75 124 -75 145 0 4 -12 34 -26 66 -26 57 -33 64 -63 59 -8 -1 -22 8 -31 19 -15 21 -17 21 -49 5 -29 -14 -43 -15 -114 -4 -45 6 -129 11 -187 10 -70 -1 -138 5 -205 18 -55 11 -133 23 -173 26 -41 4 -86 12 -100 19 -55 27 -138 40 -184 29 -62 -15 -185 -8 -233 13 -36 17 -76 19 -380 20 -440 2 -596 11 -654 36 -24 10 -48 16 -53 12 -6 -3 -68 -12 -137 -20 -69 -8 -142 -16 -161 -19 -27 -4 -52 4 -113 35 -44 22 -85 45 -93 52 -10 8 -14 8 -14 0z m523 -146 c34 -2 83 0 108 5 34 7 68 4 135 -11 66 -15 119 -19 204 -18 200 4 243 2 325 -12 86 -14 201 -15 386 -4 112 7 118 7 220 -25 57 -18 131 -34 164 -36 33 -2 92 -8 130 -13 39 -6 107 -10 152 -10 45 -1 93 -5 106 -10 17 -7 33 -5 52 5 22 11 40 12 82 5 29 -6 62 -15 72 -21 11 -5 46 -10 78 -10 68 0 79 -6 88 -43 11 -43 43 -99 75 -134 18 -19 28 -37 24 -47 -3 -8 5 -30 19 -48 14 -18 45 -71 68 -118 23 -47 45 -87 49 -90 3 -3 12 -14 19 -25 10 -17 10 -14 5 20 -4 22 -16 52 -27 67 -11 15 -18 30 -15 34 9 8 118 -180 118 -203 0 -12 -10 -3 -31 27 l-31 45 6 -35 c4 -19 21 -60 40 -90 18 -30 55 -98 82 -150 27 -52 68 -114 92 -139 23 -24 42 -54 42 -66 0 -21 62 -95 80 -95 5 0 11 8 14 18 3 10 4 7 3 -8 -2 -36 26 -87 79 -148 53 -60 50 -71 -18 -82 -155 -27 -185 -37 -293 -99 -27 -16 -63 -36 -80 -44 -32 -17 -145 -47 -175 -47 -10 0 -20 -6 -23 -13 -3 -7 -39 -31 -81 -52 -42 -21 -83 -47 -93 -57 -9 -10 -20 -18 -25 -18 -5 0 -21 -9 -36 -20 -15 -11 -49 -28 -77 -39 -124 -46 -213 -83 -247 -101 -20 -11 -83 -35 -140 -54 -137 -46 -187 -65 -218 -81 -30 -17 -132 -51 -180 -60 -19 -4 -39 -11 -45 -15 -16 -12 -140 -60 -156 -60 -8 0 -27 -14 -43 -31 l-29 -31 -91 7 c-50 4 -156 9 -236 10 -80 2 -161 8 -180 14 -19 6 -52 11 -72 11 -20 0 -49 5 -63 12 -20 9 -40 8 -98 -5 -97 -23 -176 -23 -337 3 -74 11 -155 24 -180 27 -24 3 -53 11 -65 18 -20 14 -255 44 -333 44 -24 0 -64 7 -90 15 -27 8 -105 17 -182 20 -228 10 -334 17 -350 26 -8 4 -42 11 -75 15 -33 4 -67 11 -75 15 -8 4 -39 3 -69 -3 -47 -10 -54 -9 -66 7 -10 13 -20 16 -36 11 -32 -11 -200 -12 -206 -1 -3 4 -21 6 -39 3 -34 -6 -35 -5 -76 70 -23 42 -61 98 -85 125 -24 27 -57 74 -73 106 -17 31 -49 80 -71 107 -22 28 -58 83 -80 122 -22 40 -57 94 -77 120 -45 58 -83 118 -100 157 -7 16 -28 47 -46 70 -19 22 -43 59 -55 81 -12 22 -41 72 -66 110 -24 39 -44 78 -45 87 0 31 100 105 180 132 41 13 104 40 140 60 36 20 72 36 81 36 9 0 59 22 111 49 51 27 118 59 148 71 30 12 100 43 155 69 55 26 134 58 175 70 41 12 123 37 181 56 59 19 113 35 121 35 8 0 39 17 69 39 79 56 110 70 182 80 43 6 99 26 173 62 212 101 206 100 344 103 133 4 229 10 350 23 41 5 78 7 83 5 4 -2 35 -5 70 -7z m-2528 -745 c-3 -5 -11 -10 -16 -10 -6 0 -7 5 -4 10 3 6 11 10 16 10 6 0 7 -4 4 -10z m5369 -298 c34 -55 78 -143 73 -148 -3 -3 -14 10 -26 28 -11 18 -26 42 -33 53 -7 11 -15 22 -19 25 -3 3 -15 22 -28 43 -19 31 -20 37 -7 37 9 0 26 -17 40 -38z m-5409 -29 c13 -16 25 -31 25 -35 0 -4 16 -32 35 -62 19 -30 35 -59 35 -64 0 -5 9 -17 21 -28 12 -10 28 -32 36 -49 9 -16 22 -34 29 -38 8 -4 26 -29 39 -55 14 -26 45 -72 70 -102 24 -30 44 -58 45 -62 0 -4 18 -31 39 -59 22 -29 45 -64 52 -78 7 -14 23 -39 34 -56 12 -16 45 -73 74 -125 29 -52 64 -109 77 -127 13 -17 24 -35 24 -38 0 -4 9 -19 20 -35 16 -22 21 -49 25 -136 3 -60 12 -163 20 -229 28 -224 38 -469 25 -585 -9 -79 -9 -116 -1 -145 6 -22 16 -85 21 -141 9 -90 8 -107 -10 -161 -15 -48 -20 -85 -18 -165 1 -93 -6 -196 -16 -223 -2 -6 1 -35 6 -65 5 -30 11 -244 13 -475 2 -231 7 -503 11 -605 4 -102 6 -197 5 -212 -1 -16 -2 -54 -2 -85 0 -32 -1 -78 -1 -103 -1 -25 -1 -54 -1 -65 5 -310 4 -385 -1 -394 -4 -5 -2 -39 4 -73 6 -35 12 -271 14 -538 2 -313 8 -495 16 -534 9 -46 9 -86 -1 -185 -7 -69 -13 -144 -12 -166 7 -362 9 -943 3 -985 -4 -30 -8 -50 -9 -43 0 7 -14 27 -30 46 -16 18 -63 91 -104 163 -123 213 -195 313 -262 364 -33 25 -67 59 -76 75 -9 17 -34 64 -55 105 -22 41 -48 89 -58 105 -11 17 -35 55 -55 85 -19 30 -34 63 -34 73 1 10 -3 31 -8 45 -6 15 -17 86 -24 158 -11 109 -11 143 0 195 20 98 31 293 15 287 -6 -2 -13 -26 -15 -53 -2 -28 -8 -68 -13 -90 -5 -26 -8 76 -8 290 0 182 -3 361 -8 399 -5 44 -4 66 2 62 19 -12 21 44 14 424 -8 441 -9 791 -2 900 3 41 -1 116 -9 165 -9 63 -15 242 -18 595 -2 278 -5 546 -6 595 -1 50 4 122 11 160 9 46 12 94 7 140 -3 39 -9 202 -11 364 -3 222 -8 309 -20 354 -8 34 -12 72 -9 86 9 32 37 256 37 296 0 17 -4 56 -9 89 -6 34 -6 77 -2 103 10 51 3 245 -12 347 -17 122 -30 368 -19 381 6 7 8 20 4 29 -9 24 4 19 31 -11z m5565 -153 c8 0 83 -120 95 -151 9 -23 -20 -31 -38 -11 -27 30 -68 121 -72 160 -3 20 -2 29 1 20 3 -10 9 -18 14 -18z m140 -611 c0 -5 -4 -9 -10 -9 -5 0 -10 7 -10 16 0 8 5 12 10 9 6 -3 10 -10 10 -16z m-10 -41 c0 -17 -2 -18 -15 -4 -8 8 -15 16 -15 19 0 2 7 4 15 4 8 0 15 -9 15 -19z m-4513 -234 c-3 -3 -12 -4 -19 -1 -8 3 -5 6 6 6 11 1 17 -2 13 -5z m-306 -54 c21 0 40 -4 43 -9 3 -5 27 -12 53 -16 27 -3 67 -18 90 -31 42 -24 42 -24 260 -18 120 3 232 5 248 4 17 0 87 -1 156 0 81 0 150 -5 195 -15 38 -9 94 -21 124 -26 192 -33 229 -35 259 -20 10 6 40 13 67 16 45 6 53 4 82 -20 22 -19 50 -29 94 -36 35 -5 88 -16 118 -24 70 -19 97 -19 193 2 78 17 79 17 148 -7 l69 -24 78 17 c42 10 86 17 97 17 11 -1 48 -2 82 -3 33 -1 65 -5 69 -9 4 -5 25 -8 47 -8 27 0 48 -8 69 -25 l31 -26 23 22 c38 36 48 22 50 -77 1 -49 7 -116 14 -149 15 -68 19 -307 6 -375 -4 -25 -12 -58 -18 -73 -8 -20 -8 -31 1 -40 6 -6 12 -22 12 -37 1 -16 6 -7 13 25 7 27 15 45 18 39 9 -14 -3 -264 -12 -264 -9 0 -20 61 -20 106 0 38 -25 53 -34 21 -10 -36 -7 -88 9 -171 8 -44 15 -100 14 -125 0 -25 7 -75 16 -110 12 -44 15 -80 10 -110 -8 -60 -8 -66 2 -133 7 -40 6 -59 -1 -61 -7 -2 -10 -45 -8 -124 1 -67 -2 -150 -8 -186 -6 -37 -6 -83 -2 -108 5 -24 4 -88 -1 -142 -8 -84 -7 -107 8 -157 11 -37 15 -71 11 -93 -10 -51 12 -429 29 -512 14 -70 23 -194 30 -421 2 -66 9 -140 15 -164 6 -24 13 -120 15 -214 2 -113 9 -196 20 -244 14 -60 15 -79 5 -103 -15 -35 -8 -242 10 -299 6 -19 13 -132 15 -250 4 -193 13 -399 18 -440 3 -21 -13 -271 -20 -322 -7 -45 -8 -111 -4 -163 2 -16 2 -61 1 -100 -1 -38 3 -82 9 -97 6 -17 8 -92 4 -205 -8 -218 -8 -260 -1 -390 5 -98 0 -122 -20 -87 -13 23 -89 29 -143 11 -34 -12 -55 -13 -89 -6 -134 29 -150 31 -181 20 -46 -16 -199 -13 -336 5 -101 14 -130 15 -196 4 -48 -8 -110 -10 -160 -6 -45 3 -95 3 -112 -2 -17 -5 -66 -5 -110 1 -44 5 -138 9 -210 10 -71 1 -136 6 -144 11 -27 17 -160 28 -321 27 -121 -2 -185 2 -240 14 -122 26 -180 32 -261 27 -42 -2 -90 -1 -105 5 -16 5 -81 6 -144 3 -91 -5 -118 -4 -132 8 -19 16 -32 74 -33 152 -1 30 -7 113 -13 183 -10 111 -9 138 4 202 15 66 13 145 -3 145 -3 0 -12 -8 -19 -17 -11 -15 -13 0 -14 104 0 71 4 124 10 128 6 4 10 -5 10 -19 0 -35 14 -33 19 2 7 48 -1 835 -9 885 -4 27 -3 87 3 134 8 62 7 93 -1 116 -9 25 -8 46 4 97 13 54 13 75 3 122 -6 32 -9 77 -6 100 29 212 35 278 32 388 -1 69 -8 147 -14 174 -7 27 -11 90 -10 140 0 50 -2 177 -5 281 -3 105 -5 235 -5 290 1 128 2 113 -6 235 -4 58 -13 129 -22 159 -10 39 -14 93 -12 190 2 75 -3 188 -9 251 -15 144 -15 260 -1 297 15 40 19 254 8 418 -8 114 -7 153 5 210 57 269 65 323 55 356 -18 62 -28 263 -15 292 6 12 4 17 -7 17 -22 0 -26 28 -27 217 0 95 -3 179 -6 188 -4 8 -3 23 0 32 5 12 9 14 18 5 7 -7 29 -12 49 -12z m679 1 l45 -7 -72 -12 c-109 -18 -223 -14 -223 8 0 5 8 11 18 13 27 7 182 6 232 -2z m465 -11 c3 -5 1 -10 -4 -10 -6 0 -11 5 -11 10 0 6 2 10 4 10 3 0 8 -4 11 -10z m-760 -10 c-3 -5 -17 -10 -31 -10 -13 0 -24 5 -24 10 0 6 14 10 31 10 17 0 28 -4 24 -10z m2707 -72 c-6 -6 -16 -7 -22 -3 -9 6 -9 9 1 16 17 10 34 0 21 -13z m-3215 -130 c-2 -13 -4 -3 -4 22 0 25 2 35 4 23 2 -13 2 -33 0 -45z m0 -70 c-3 -8 -6 -5 -6 6 -1 11 2 17 5 13 3 -3 4 -12 1 -19z m13 -44 c0 -14 -4 -23 -10 -19 -5 3 -10 15 -10 26 0 10 5 19 10 19 6 0 10 -12 10 -26z m54 -420 c9 -25 7 -70 -5 -101 l-12 -28 -9 30 c-10 33 -2 115 12 115 4 0 11 -7 14 -16z m4918 -346 c1 -15 -1 -28 -7 -30 -5 -2 -11 17 -13 42 -2 48 13 38 20 -12z m15 -140 c3 -34 1 -79 -5 -98 -9 -31 -10 -25 -11 50 -1 47 -4 96 -7 110 -5 20 -4 23 6 13 7 -6 14 -40 17 -75z m13 -294 c0 -14 -4 -23 -10 -19 -5 3 -10 15 -10 26 0 10 5 19 10 19 6 0 10 -12 10 -26z m-2046 -115 c9 -46 7 -99 -3 -99 -14 0 -21 27 -21 81 0 55 14 66 24 18z m31 -347 c-8 -9 -22 97 -17 133 5 34 7 27 14 -45 4 -46 5 -86 3 -88z m-44 -222 c1 -47 6 -105 11 -130 12 -52 11 -211 -1 -290 -8 -52 -9 -50 -10 41 -1 59 -7 110 -15 131 -12 27 -14 71 -11 189 2 85 4 168 5 184 l2 30 9 -35 c5 -19 9 -73 10 -120z m-3747 -116 c3 -55 8 -119 12 -142 4 -25 3 -42 -3 -42 -6 0 -13 30 -16 68 -8 77 -9 228 -3 221 3 -3 7 -50 10 -105z m26 -266 c0 -10 -4 -18 -10 -18 -5 0 -10 15 -10 33 0 24 3 28 10 17 5 -8 10 -23 10 -32z m3737 -240 c-2 -18 -4 -6 -4 27 0 33 2 48 4 33 2 -15 2 -42 0 -60z m-2891 -804 c4 -58 4 -58 -10 -29 -18 36 -22 115 -5 98 5 -5 12 -37 15 -69z m5025 -621 c-3 -248 12 -711 25 -775 6 -28 -16 -201 -23 -181 -11 31 -29 259 -22 269 5 6 6 14 2 18 -19 19 -10 726 9 726 5 0 9 -26 9 -57z m-2004 -1365 c-8 -86 -8 -87 -16 -53 -6 28 7 115 17 115 2 0 2 -28 -1 -62z m-3379 -248 c57 -93 92 -164 54 -110 -9 13 -37 47 -61 74 -41 46 -91 140 -91 169 1 18 33 -26 98 -133z m956 -656 c60 -3 75 -8 62 -21 -10 -10 -225 -9 -251 1 -19 7 -19 8 5 22 18 10 40 13 75 8 28 -3 76 -7 109 -10z m-339 -4 c4 -6 -13 -10 -44 -10 -28 0 -51 5 -51 10 0 6 20 10 44 10 25 0 48 -4 51 -10z"
       id="path4"
       style="fill:#ffffff" />
    <path
       d="M661 3103 c0 -4 4 -17 9 -28 8 -19 9 -19 9 2 1 12 -3 25 -9 28 -5 3 -10 3 -9 -2z"
       id="path6"
       style="fill:#ffffff" />
  </g>
  <path
     style="fill:#00ff00;fill-opacity:0;stroke-width:0.75"
     id="path4053"
     sodipodi:type="arc"
     sodipodi:cx="377.44464"
     sodipodi:cy="507.90125"
     sodipodi:rx="28.583187"
     sodipodi:ry="30.048992"
     sodipodi:start="0"
     sodipodi:end="6.2701231"
     sodipodi:arc-type="slice"
     d="m 406.02783,507.90125 a 28.583187,30.048992 0 0 1 -28.48985,30.04883 28.583187,30.048992 0 0 1 -28.67592,-29.85258 28.583187,30.048992 0 0 1 28.30257,-30.24381 28.583187,30.048992 0 0 1 28.86076,29.65506 l -28.58075,0.3925 z" />
  <path
     style="fill:#ff0000;fill-opacity:0;stroke-width:0.75"
     id="path5397"
     sodipodi:type="arc"
     sodipodi:cx="295.44485"
     sodipodi:cy="506.99164"
     sodipodi:rx="101.91304"
     sodipodi:ry="4.6324105"
     sodipodi:start="0"
     sodipodi:end="6.090971"
     sodipodi:open="true"
     sodipodi:arc-type="arc"
     d="m 397.35789,506.99164 a 101.91304,4.6324105 0 0 1 -97.01763,4.62706 101.91304,4.6324105 0 0 1 -106.33814,-4.18254 101.91304,4.6324105 0 0 1 86.80171,-5.02888 101.91304,4.6324105 0 0 1 114.6772,3.69942" />
</svg>
